# xmcd
#
# Track frame offsets:
#	150
#	19182
#	40787
#	57825
#	81152
#	99507
#	113367
#	131215
#	159190
#	177450
#	197795
#	218430
#	248362
#	262895
#	278392
#
# Disc length: 4132 seconds
#
# Revision: 0
# Processed by: cddbd v1.4PL0 Copyright (c) Steve Scherf et al.
# Submitted via: audiograbber 1.81.03
#
DISCID=b610220f
DTITLE=Mississippi Heat - Learned The Hard Way
DYEAR=1994
DGENRE=Blues
TTITLE0=I Love My Baby
TTITLE1=Learned The Hard Way
TTITLE2=Let's Pack Our Bags
TTITLE3=Je Me Souviens (I Remember Too)
TTITLE4=Keep Your Hands Off Her
TTITLE5=He's Not Good For Me
TTITLE6=My Woman Is An Old Black Spider
TTITLE7=Moanin' And Cryin'
TTITLE8=Kindhearted Fool
TTITLE9=Lonely Nights No More
TTITLE10=The Wrong Guy
TTITLE11=How Long Can A Man Be Poor
TTITLE12=Got To Change Your Ways
TTITLE13=Bull Frog Hop
TTITLE14=Mean Old World
EXTD=
EXTT0=
EXTT1=
EXTT2=
EXTT3=
EXTT4=
EXTT5=
EXTT6=
EXTT7=
EXTT8=
EXTT9=
EXTT10=
EXTT11=
EXTT12=
EXTT13=
EXTT14=
PLAYORDER=
